HIERARCHY
ROOT Hips
{
	OFFSET -0.001795 -0.223333 0.028219
	CHANNELS 6 Xposition Yposition Zposition Zrotation Yrotation Xrotation
	JOINT LeftUpLeg
	{
		OFFSET 0.069520 -0.091406 -0.006815
		CHANNELS 3 Zrotation Yrotation Xrotation
		JOINT LeftLeg
		{
			OFFSET 0.034277 -0.375199 -0.004496
			CHANNELS 3 Zrotation Yrotation Xrotation
			JOINT LeftFoot
			{
				OFFSET -0.013596 -0.397961 -0.043693
				CHANNELS 3 Zrotation Yrotation Xrotation
				JOINT LeftToe
				{
					OFFSET 0.026358 -0.055791 0.119288
					CHANNELS 3 Zrotation Yrotation Xrotation
					End Site
					{
						OFFSET 0.000000 0.000000 0.000000
					}
				}
			}
		}
	}
	JOINT RightUpLeg
	{
		OFFSET -0.067670 -0.090522 -0.004320
		CHANNELS 3 Zrotation Yrotation Xrotation
		JOINT RightLeg
		{
			OFFSET -0.038290 -0.382569 -0.008850
			CHANNELS 3 Zrotation Yrotation Xrotation
			JOINT RightFoot
			{
				OFFSET 0.015774 -0.398415 -0.042312
				CHANNELS 3 Zrotation Yrotation Xrotation
				JOINT RightToe
				{
					OFFSET -0.025372 -0.048144 0.123348
					CHANNELS 3 Zrotation Yrotation Xrotation
					End Site
					{
						OFFSET 0.000000 0.000000 0.000000
					}
				}
			}
		}
	}
	JOINT Spine
	{
		OFFSET -0.002533 0.108963 -0.026696
		CHANNELS 3 Zrotation Yrotation Xrotation
		JOINT Spine1
		{
			OFFSET 0.005487 0.135180 0.001092
			CHANNELS 3 Zrotation Yrotation Xrotation
			JOINT Spine2
			{
				OFFSET 0.001457 0.052922 0.025425
				CHANNELS 3 Zrotation Yrotation Xrotation
				JOINT Neck
				{
					OFFSET -0.002778 0.213870 -0.042857
					CHANNELS 3 Zrotation Yrotation Xrotation
					JOINT Head
					{
						OFFSET 0.005152 0.064970 0.051349
						CHANNELS 3 Zrotation Yrotation Xrotation
						End Site
						{
							OFFSET 0.000000 0.000000 0.000000
						}
					}
				}
				JOINT LeftShoulder
				{
					OFFSET 0.078845 0.121749 -0.034090
					CHANNELS 3 Zrotation Yrotation Xrotation
					JOINT LeftArm
					{
						OFFSET 0.090977 0.030469 -0.008868
						CHANNELS 3 Zrotation Yrotation Xrotation
						JOINT LeftForeArm
						{
							OFFSET 0.259612 -0.012772 -0.027456
							CHANNELS 3 Zrotation Yrotation Xrotation
							JOINT LeftHand
							{
								OFFSET 0.249234 0.008986 -0.001171
								CHANNELS 3 Zrotation Yrotation Xrotation
								End Site
								{
									OFFSET 0.000000 0.000000 0.000000
								}
							}
						}
					}
				}
				JOINT RightShoulder
				{
					OFFSET -0.081759 0.118833 -0.038615
					CHANNELS 3 Zrotation Yrotation Xrotation
					JOINT RightArm
					{
						OFFSET -0.096012 0.032551 -0.009143
						CHANNELS 3 Zrotation Yrotation Xrotation
						JOINT RightForeArm
						{
							OFFSET -0.253742 -0.013329 -0.021401
							CHANNELS 3 Zrotation Yrotation Xrotation
							JOINT RightHand
							{
								OFFSET -0.255298 0.007772 -0.005559
								CHANNELS 3 Zrotation Yrotation Xrotation
								End Site
								{
									OFFSET 0.000000 0.000000 0.000000
								}
							}
						}
					}
				}
			}
		}
	}
}
MOTION
Frames: 5
Frame Time: 0.050000
0.000000 0.924421 0.000000 -1.482815 1.879475 -1.635035 12.107228 -0.228405 3.004948 -4.959238 0.577165 7.596151 13.209970 24.930878 14.462287 0.000000 0.000000 0.000000 -11.923298 0.121413 -8.132761 5.151207 -0.599976 3.522961 -6.660413 -17.589863 22.733937 0.000000 0.000000 0.000000 2.663595 -0.877583 13.008956 -4.097073 1.623844 -25.830704 -1.737489 -0.536465 25.289892 10.050458 -5.172649 -21.677686 0.000000 0.000000 0.000000 -12.859834 -12.745548 5.320739 -38.057486 -37.876579 4.971000 69.694552 -77.088014 -52.217218 0.000000 0.000000 0.000000 22.860229 -0.174134 -1.160768 45.204024 25.317670 2.365650 -75.104416 68.186448 -47.994852 0.000000 0.000000 0.000000
-0.000235 0.924102 -0.000496 -1.400918 3.213507 -1.041603 12.900187 -0.327520 2.700010 -5.927172 0.701525 6.732941 11.779061 23.035415 12.784038 0.000000 0.000000 0.000000 -12.357096 0.053812 -8.103837 5.627463 -0.681839 2.878165 -7.388118 -18.444697 23.164985 0.000000 0.000000 0.000000 1.563793 -0.749148 12.727905 -3.729862 1.547879 -26.624438 -1.698743 -1.877096 26.153992 10.594877 -5.779091 -21.162915 0.000000 0.000000 0.000000 -12.936386 -11.881638 5.040305 -36.467082 -38.831586 4.806696 76.787507 -75.878893 -57.322740 0.000000 0.000000 0.000000 22.843226 0.933709 -0.631540 44.170432 26.679502 2.691195 -76.493269 66.682963 -48.072747 0.000000 0.000000 0.000000
-0.000057 0.922962 -0.000299 -1.144594 3.177706 -0.842686 12.779617 -0.295977 1.550819 -5.576222 0.664115 8.825087 10.610396 21.367332 11.841912 0.000000 0.000000 0.000000 -13.123141 -0.011298 -9.261642 6.741636 -0.889199 4.952641 -7.665281 -18.847352 21.686214 0.000000 0.000000 0.000000 1.228918 -0.693996 12.494143 -3.257401 1.454268 -26.053262 -2.010488 0.485658 25.636429 11.946018 -6.335819 -20.985251 0.000000 0.000000 0.000000 -12.637753 -12.333348 4.793947 -34.914197 -39.270644 4.621226 80.399774 -75.051893 -60.945929 0.000000 0.000000 0.000000 24.886137 -0.127443 -0.660410 42.136459 28.945574 3.056667 -75.886423 63.737370 -44.242441 0.000000 0.000000 0.000000
0.000327 0.921975 0.000892 -1.096517 4.068776 -0.337041 13.627503 -0.374924 1.331462 -5.725898 0.668356 8.819074 7.820444 17.037921 9.525764 0.000000 0.000000 0.000000 -13.465003 -0.078476 -9.647640 7.687904 -1.089182 5.630876 -8.762697 -20.383011 20.505843 0.000000 0.000000 0.000000 1.503278 -0.693819 11.813648 -4.809100 1.801968 -26.389037 -1.677946 -0.668744 26.735738 11.956000 -6.699039 -20.109982 0.000000 0.000000 0.000000 -11.410028 -11.905651 4.668777 -32.948179 -39.984146 4.259880 79.693366 -71.106155 -56.614771 0.000000 0.000000 0.000000 24.351757 -0.030705 -0.711938 42.018008 30.814959 3.640683 -76.441219 61.549110 -42.894395 0.000000 0.000000 0.000000
0.000700 0.920153 0.003836 -1.091172 3.848793 -0.105764 13.862613 -0.362084 0.756803 -5.345939 0.610342 9.637938 6.861968 15.555400 9.802460 0.000000 0.000000 0.000000 -13.090894 -0.055294 -10.851547 7.533407 -1.122578 7.543206 -9.655083 -21.798470 19.657456 0.000000 0.000000 0.000000 0.911329 -0.611783 11.555266 -5.287843 1.883711 -26.840960 -0.848824 0.141076 27.070646 11.899185 -6.525097 -20.253185 0.000000 0.000000 0.000000 -10.135086 -11.652436 4.413141 -31.213606 -39.971230 3.792470 81.152820 -66.486666 -54.084090 0.000000 0.000000 0.000000 23.855164 -0.171943 -0.544289 41.517922 30.675129 3.423492 -79.576666 63.212236 -46.400449 0.000000 0.000000 0.000000
